<svg width="73" height="18" viewBox="0 0 73 18" fill="none" xmlns="http://www.w3.org/2000/svg">
<path d="M35.4922 15V3.54688H37.0078V15H35.4922ZM39.6719 15V3.54688H41.2266L47.2422 12.5391V3.54688H48.6953V15H47.1406L41.125 6V15H39.6719ZM51.3281 15V3.54688H59.0547V4.89844H52.8438V8.44531H58.2188V9.79688H52.8438V15H51.3281ZM60.5703 9.42188C60.5703 7.52083 61.0807 6.03385 62.1016 4.96094C63.1224 3.88281 64.4401 3.34375 66.0547 3.34375C67.112 3.34375 68.0651 3.59635 68.9141 4.10156C69.763 4.60677 70.4089 5.3125 70.8516 6.21875C71.2995 7.11979 71.5234 8.14323 71.5234 9.28906C71.5234 10.4505 71.2891 11.4896 70.8203 12.4062C70.3516 13.3229 69.6875 14.0182 68.8281 14.4922C67.9688 14.9609 67.0417 15.1953 66.0469 15.1953C64.9688 15.1953 64.0052 14.9349 63.1562 14.4141C62.3073 13.8932 61.6641 13.1823 61.2266 12.2812C60.7891 11.3802 60.5703 10.4271 60.5703 9.42188ZM62.1328 9.44531C62.1328 10.8255 62.5026 11.9141 63.2422 12.7109C63.987 13.5026 64.9193 13.8984 66.0391 13.8984C67.1797 13.8984 68.1172 13.4974 68.8516 12.6953C69.5911 11.8932 69.9609 10.7552 69.9609 9.28125C69.9609 8.34896 69.8021 7.53646 69.4844 6.84375C69.1719 6.14583 68.7109 5.60677 68.1016 5.22656C67.4974 4.84115 66.8177 4.64844 66.0625 4.64844C64.9896 4.64844 64.0651 5.01823 63.2891 5.75781C62.5182 6.49219 62.1328 7.72135 62.1328 9.44531Z" fill="white"/>
<path d="M8 2L24 2" stroke="white" stroke-width="1.7"/>
<path d="M0 9H24" stroke="white" stroke-width="1.7"/>
<path d="M0 16H24" stroke="white" stroke-width="1.7"/>
</svg>
