<svg width="179" height="38" viewBox="0 0 179 38" fill="none" xmlns="http://www.w3.org/2000/svg">
<path fill-rule="evenodd" clip-rule="evenodd" d="M37.5654 18.7824C31.3529 18.7824 26.751 16.9165 23.7 13.8655C20.649 10.8145 18.783 6.21255 18.783 0C18.783 6.21255 16.917 10.8145 13.8661 13.8655C10.8151 16.9165 6.21315 18.7824 0.000598086 18.7824C6.21315 18.7824 10.8151 20.6484 13.8661 23.6994C16.917 26.7504 18.783 31.3523 18.783 37.5648C18.783 31.3523 20.649 26.7504 23.7 23.6994C26.751 20.6484 31.3529 18.7824 37.5654 18.7824Z" fill="black"/>
<path d="M48.029 31V7.72729H52.9494V26.9432H62.9267V31H48.029ZM69.5057 7.72729V31H64.5852V7.72729H69.5057ZM93.3403 19.3637C93.3403 21.9015 92.8593 24.0606 91.8972 25.8409C90.9426 27.6212 89.6396 28.9811 87.9881 29.9205C86.3441 30.8523 84.4956 31.3182 82.4426 31.3182C80.3744 31.3182 78.5184 30.8485 76.8744 29.9091C75.2305 28.9697 73.9313 27.6099 72.9767 25.8296C72.0222 24.0493 71.5449 21.894 71.5449 19.3637C71.5449 16.8258 72.0222 14.6667 72.9767 12.8864C73.9313 11.1061 75.2305 9.75001 76.8744 8.8182C78.5184 7.8788 80.3744 7.40911 82.4426 7.40911C84.4956 7.40911 86.3441 7.8788 87.9881 8.8182C89.6396 9.75001 90.9426 11.1061 91.8972 12.8864C92.8593 14.6667 93.3403 16.8258 93.3403 19.3637ZM88.3517 19.3637C88.3517 17.7197 88.1055 16.3333 87.6131 15.2046C87.1282 14.0758 86.4426 13.2197 85.5563 12.6364C84.6699 12.053 83.632 11.7614 82.4426 11.7614C81.2532 11.7614 80.2153 12.053 79.329 12.6364C78.4426 13.2197 77.7532 14.0758 77.2608 15.2046C76.776 16.3333 76.5335 17.7197 76.5335 19.3637C76.5335 21.0076 76.776 22.394 77.2608 23.5227C77.7532 24.6515 78.4426 25.5076 79.329 26.0909C80.2153 26.6743 81.2532 26.9659 82.4426 26.9659C83.632 26.9659 84.6699 26.6743 85.5563 26.0909C86.4426 25.5076 87.1282 24.6515 87.6131 23.5227C88.1055 22.394 88.3517 21.0076 88.3517 19.3637ZM114.851 7.72729V31H110.601L100.476 16.3523H100.306V31H95.3852V7.72729H99.7034L109.749 22.3637H109.953V7.72729H114.851ZM125.566 31H117.316V7.72729H125.635C127.976 7.72729 129.991 8.1932 131.68 9.12502C133.37 10.0493 134.669 11.3788 135.578 13.1137C136.495 14.8485 136.953 16.9243 136.953 19.3409C136.953 21.7652 136.495 23.8485 135.578 25.5909C134.669 27.3333 133.362 28.6705 131.657 29.6023C129.96 30.5341 127.93 31 125.566 31ZM122.237 26.7841H125.362C126.816 26.7841 128.04 26.5265 129.032 26.0114C130.032 25.4887 130.782 24.6818 131.282 23.5909C131.79 22.4924 132.044 21.0758 132.044 19.3409C132.044 17.6212 131.79 16.2159 131.282 15.125C130.782 14.0341 130.036 13.2311 129.044 12.7159C128.051 12.2008 126.828 11.9432 125.373 11.9432H122.237V26.7841ZM141.697 31H136.424L144.458 7.72729H150.799L158.822 31H153.549L147.719 13.0455H147.538L141.697 31ZM141.367 21.8523H153.822V25.6932H141.367V21.8523ZM160.023 31V7.72729H169.205C170.962 7.72729 172.462 8.04168 173.705 8.67047C174.955 9.29168 175.905 10.1743 176.557 11.3182C177.216 12.4546 177.545 13.7917 177.545 15.3296C177.545 16.875 177.212 18.2046 176.545 19.3182C175.879 20.4243 174.913 21.2727 173.648 21.8637C172.39 22.4546 170.867 22.75 169.08 22.75H162.932V18.7955H168.284C169.223 18.7955 170.004 18.6667 170.625 18.4091C171.246 18.1515 171.708 17.7652 172.011 17.25C172.322 16.7349 172.477 16.0947 172.477 15.3296C172.477 14.5568 172.322 13.9053 172.011 13.375C171.708 12.8447 171.242 12.4432 170.614 12.1705C169.992 11.8902 169.208 11.75 168.261 11.75H164.943V31H160.023ZM172.591 20.4091L178.375 31H172.943L167.284 20.4091H172.591Z" fill="black"/>
</svg>
